<svg width="45" height="45" viewBox="0 0 45 45" fill="none" xmlns="http://www.w3.org/2000/svg">
<path d="M44.3972 34.671L39.6279 29.9012C39.1361 30.9363 38.1955 31.7316 37.002 32.0152L36.3523 32.1694L36.1979 32.8197C35.9342 33.9302 34.694 36.0215 32.0834 35.8092L31.4169 35.7551L31.0694 36.3256C30.4842 37.2858 29.502 37.9421 28.41 38.1368L34.6711 44.3971C34.99 44.7161 35.4514 44.8472 35.8904 44.7435C36.3294 44.6399 36.6835 44.3162 36.8261 43.8884L38.5916 38.5914L43.8885 36.826C44.3165 36.6833 44.64 36.3293 44.7436 35.8903C44.8472 35.4513 44.7161 34.9899 44.3972 34.671Z" fill="white"/>
<path d="M14.0626 36.3256L13.715 35.7551L13.0485 35.8093C10.4379 36.0215 9.19769 33.9303 8.934 32.8197L8.77964 32.1695L8.12993 32.0152C6.93645 31.7317 5.9958 30.9364 5.50401 29.9013L0.734755 34.671C0.415799 34.99 0.284694 35.4513 0.38838 35.8903C0.491981 36.3294 0.815622 36.6834 1.24347 36.826L6.54044 38.5915L8.30589 43.8885C8.44854 44.3164 8.80255 44.6399 9.24159 44.7435C9.68064 44.8471 10.142 44.7161 10.4609 44.3972L16.722 38.1368C15.6299 37.9421 14.6477 37.2859 14.0626 36.3256Z" fill="white"/>
<path d="M28.8465 34.9711L30.0289 33.0309L32.2936 33.2149C32.9328 33.2667 33.5168 32.8437 33.6651 32.2184L34.1902 30.0076L36.4002 29.4828C37.0254 29.3342 37.4487 28.7516 37.3966 28.1111L37.2127 25.8469L39.1527 24.6647C39.7014 24.3303 39.924 23.6455 39.6767 23.0523L38.8024 20.9555L40.282 19.2316C40.7005 18.7441 40.7006 18.024 40.2822 17.5364L38.8024 15.8119L39.6767 13.7149C39.924 13.1218 39.7014 12.437 39.1527 12.1026L37.2127 10.9203L37.3966 8.65618C37.4486 8.01567 37.0254 7.43302 36.4002 7.28448L34.1902 6.75962L33.6651 4.54888C33.5167 3.92355 32.9328 3.50056 32.2936 3.55236L30.0289 3.7363L28.8465 1.79619C28.5121 1.2473 27.8269 1.02509 27.234 1.27229L25.1374 2.14707L23.4136 0.667344C22.926 0.248865 22.2058 0.248865 21.7182 0.667344L19.9945 2.1469L17.8979 1.27211C17.3046 1.02474 16.6199 1.24721 16.2854 1.79601L15.103 3.73613L12.8383 3.55218C12.1978 3.5009 11.6152 3.92337 11.4668 4.54871L10.9417 6.75945L8.73168 7.28448C8.10652 7.43302 7.68319 8.01567 7.73525 8.65618L7.91919 10.9203L5.97916 12.1026C5.43045 12.437 5.20789 13.1217 5.45518 13.7149L6.32944 15.8119L4.84972 17.5364C4.43132 18.024 4.43141 18.7441 4.84989 19.2316L6.32944 20.9555L5.45535 23.0523C5.20806 23.6455 5.43062 24.3303 5.97934 24.6647L7.91937 25.8469L7.73542 28.1111C7.68345 28.7516 8.1067 29.3342 8.73186 29.4828L10.9419 30.0076L11.4669 32.2184C11.6155 32.8437 12.198 33.2662 12.8385 33.2149L15.1032 33.0309L16.2856 34.9711C16.62 35.5199 17.3048 35.7423 17.898 35.4949L19.9947 34.6202L21.7184 36.0996C22.2059 36.5181 22.9262 36.5181 23.4137 36.0996L25.1375 34.6202L27.2341 35.4949C27.8269 35.7421 28.5121 35.5199 28.8465 34.9711ZM22.0922 27.6685C21.5841 28.1766 20.7599 28.1768 20.2516 27.6685L12.5842 20.0011C12.076 19.4929 12.076 18.6688 12.5842 18.1605L16.5273 14.2174C17.0355 13.7091 17.8596 13.7091 18.3679 14.2174L21.1719 17.0212L27.4609 10.7322C27.9691 10.2239 28.7932 10.2239 29.3015 10.7322L33.2446 14.6752C33.7529 15.1835 33.7529 16.0075 33.2446 16.5158L22.0922 27.6685Z" fill="white"/>
<path d="M22.092 19.7822C21.5839 20.2905 20.7597 20.2905 20.2515 19.7822L17.4475 16.9783L15.345 19.0808L21.1718 24.9074L30.4837 15.5956L28.3812 13.4931L22.092 19.7822Z" fill="white"/>
</svg>
