<svg width="50" height="30" viewBox="0 0 50 30" fill="none" xmlns="http://www.w3.org/2000/svg">
<path fill-rule="evenodd" clip-rule="evenodd" d="M35.604 0.674921C39.8168 1.66603 41.4282 4.16355 43.4486 7.60106H35.604V0.674921ZM10.9844 7.88972C11.8092 7.88972 12.4079 8.29338 12.4079 9.23676C12.4079 10.0324 11.7729 10.6778 10.9885 10.68H2.38837C1.60209 10.68 0.964844 11.3265 0.964844 12.1233C0.964844 12.9205 1.60209 13.5665 2.38837 13.5665H15.2001C15.9938 13.5665 16.6292 14.2122 16.6292 15.0098C16.6292 15.807 15.992 16.4531 15.2057 16.4531H2.38837C1.60209 16.4531 0.964844 17.0991 0.964844 17.8963C0.964844 18.6935 1.60209 19.3396 2.38837 19.3396H5.52013V23.6694C5.52013 24.4665 6.15738 25.1126 6.94366 25.1126H9.80517C10.3153 27.6601 12.5355 29.5386 15.1527 29.5386C17.7699 29.5386 19.9901 27.6601 20.5002 25.1126H34.9542C35.4643 27.6601 37.6844 29.5386 40.3017 29.5386C42.9189 29.5386 45.1391 27.6601 45.6492 25.1126H48.1311C48.9173 25.1126 49.5546 24.4665 49.5546 23.6694V15.0098C49.5546 10.7751 45.1491 10.494 45.145 10.4876H34.1805C33.3942 10.4876 32.757 9.8415 32.757 9.04432V0.384766H6.94366C6.15738 0.384766 5.52013 1.03085 5.52013 1.82803V5.0032H3.8119C3.02562 5.0032 2.38837 5.64928 2.38837 6.44646C2.38837 7.24363 3.02562 7.88972 3.8119 7.88972H10.9844ZM42.1471 22.1351C43.1661 23.1684 43.1661 24.8443 42.1471 25.8775C40.5078 27.5395 37.6919 26.3571 37.6919 24.0061C37.6919 21.6556 40.5078 20.4731 42.1471 22.1351ZM16.9981 22.1351C18.0171 23.1684 18.0171 24.8443 16.9981 25.8775C15.3588 27.5395 12.5429 26.3571 12.5429 24.0061C12.5429 21.6556 15.3588 20.4731 16.9981 22.1351Z" fill="white"/>
</svg>
