<svg width="44" height="44" viewBox="0 0 44 44" fill="none" xmlns="http://www.w3.org/2000/svg">
<path d="M5.70386 7.87011C5.83835 7.90386 5.96143 7.97361 6.05952 8.0716L17.0173 19.0296L19.0001 17.047L8.04213 6.08899C7.94385 5.9908 7.87439 5.86733 7.84045 5.73245L7.15078 2.98323L2.57892 0.369489L0.340118 2.60819L2.95465 7.1832L5.70386 7.87011Z" fill="white"/>
<path d="M15.4479 32.8656L32.8362 15.477C33.0266 15.2863 33.303 15.2099 33.5643 15.2749C35.8537 15.8617 38.2854 15.3532 40.1487 13.8995C42.0123 12.4457 43.0962 10.2101 43.0838 7.84681C43.0838 7.70288 43.0795 7.55786 43.0702 7.41157L39.0258 11.4554C38.8209 11.6605 38.517 11.7325 38.2415 11.6406L33.6416 10.1071C33.4126 10.0312 33.233 9.85156 33.1565 9.62273L31.6234 5.02273C31.5314 4.74765 31.6031 4.44365 31.8086 4.23832L35.8528 0.194186C33.4174 0.042676 31.0563 1.06586 29.5008 2.94576C27.9455 4.82606 27.3834 7.33699 27.9884 9.70064C28.0539 9.96234 27.9775 10.2386 27.7869 10.4292L10.3988 27.8166C10.2081 28.0058 9.93201 28.0825 9.67051 28.0185C9.06516 27.863 8.44259 27.7825 7.81727 27.78C4.51544 27.7583 1.56522 29.8398 0.478092 32.9582C-0.608451 36.0764 0.409125 39.5407 3.00959 41.5759C5.61005 43.611 9.21736 43.7667 11.9831 41.9623C14.749 40.1581 16.0605 36.7942 15.2454 33.5938C15.1806 33.3325 15.2572 33.0558 15.4479 32.8656ZM9.6834 38.5134H5.95173L4.11128 35.4469L5.95173 32.3799H9.6834L11.5235 35.4469L9.6834 38.5134ZM12.6422 29.538L29.5086 12.6714L30.5925 13.7555L13.7261 30.6221L12.6422 29.538Z" fill="white"/>
<path d="M36.7975 42.8161C38.5052 43.4582 40.4304 43.0418 41.7205 41.7518C43.0107 40.4614 43.4272 38.5359 42.7848 36.8286L36.7975 42.8161Z" fill="white"/>
<path d="M41.7204 35.1678L33.1096 26.5536C32.1599 27.352 30.7573 27.2913 29.8794 26.4145C29.0015 25.5379 28.9396 24.1358 29.7366 23.185L28.5171 21.964L21.9346 28.5469L23.1614 29.7736C24.1112 28.9752 25.514 29.0357 26.3914 29.9122C27.2692 30.789 27.3315 32.1914 26.5344 33.1422L35.1379 41.7503C35.2318 41.8441 35.3308 41.9311 35.4309 42.0157L41.9861 35.4605C41.9016 35.3603 41.8143 35.2616 41.7204 35.1678ZM37.1749 38.2885L29.5084 30.622L30.5923 29.538L38.259 37.2049L37.1749 38.2885Z" fill="white"/>
</svg>
