<svg width="37" height="46" viewBox="0 0 37 46" fill="none" xmlns="http://www.w3.org/2000/svg">
<path d="M4.38159 34.0107C4.29896 34.1657 4.29896 34.3619 4.38159 34.5168V36.0662H0.518555V21.9465H4.37126V34.0107H4.38159Z" fill="white"/>
<path d="M19.2657 43.0796C19.2244 43.751 18.9559 44.2364 18.5014 44.4327C18.0366 44.6393 17.4168 44.536 16.8384 44.1641L18.5943 42.4082L19.2657 43.0796Z" fill="white"/>
<path d="M18.5323 40.9828L14.7519 44.7632C14.5763 44.9387 14.3284 45.042 14.0702 45.042C13.812 45.042 13.5744 44.9387 13.3885 44.7632C13.0166 44.3913 13.0166 43.7819 13.3885 43.4101L17.1585 39.64C17.5304 39.2681 18.1398 39.2681 18.5116 39.64C18.9041 40.0015 18.9041 40.6109 18.5323 40.9828Z" fill="white"/>
<path d="M16.7041 38.2043C16.7041 38.4625 16.6008 38.7001 16.4252 38.8757L12.6551 42.6561C12.4795 42.8317 12.2316 42.9349 11.9734 42.9349C11.7152 42.9349 11.4776 42.8317 11.2917 42.6561C10.9198 42.2842 10.9198 41.6748 11.2917 41.303L15.0618 37.5329C15.2373 37.3573 15.4852 37.254 15.7435 37.254C16.0017 37.254 16.2393 37.3573 16.4252 37.5329C16.6008 37.7085 16.7041 37.9461 16.7041 38.2043Z" fill="white"/>
<path d="M14.3284 36.7789L10.5583 40.549C10.1865 40.9208 9.57704 40.9208 9.2052 40.549C8.83335 40.1771 8.83335 39.5677 9.2052 39.1959L12.9753 35.4258C13.3471 35.054 13.9565 35.054 14.3284 35.4258C14.7002 35.7976 14.7002 36.4071 14.3284 36.7789Z" fill="white"/>
<path d="M12.2213 34.6821L8.4512 38.4522C8.07936 38.824 7.46995 38.824 7.09811 38.4522C6.92251 38.2766 6.81922 38.0287 6.81922 37.7705C6.81922 37.5122 6.91218 37.2747 7.09811 37.0991L10.8682 33.329C11.24 32.9572 11.8494 32.9572 12.2213 33.329C12.6034 33.7009 12.6034 34.3103 12.2213 34.6821Z" fill="white"/>
<path d="M27.5186 36.1178C27.6839 37.2746 27.5703 38.0596 27.1674 38.3385C26.6407 38.7104 25.5664 38.2972 25.143 38.0803L18.8733 31.8106C18.6667 31.604 18.3362 31.604 18.1296 31.8106C17.923 32.0172 17.923 32.3477 18.1296 32.5543L24.327 38.7517C24.4199 39.485 24.3373 39.9912 24.0791 40.1874C23.7485 40.4353 23.0359 40.2391 22.6847 40.0841L16.4253 33.8248C16.2187 33.6182 15.8882 33.6182 15.6816 33.8248C15.475 34.0313 15.475 34.3619 15.6816 34.5685L21.91 40.7968C22.1372 41.6025 22.1269 42.1809 21.879 42.4081C21.5175 42.7387 20.5776 42.5527 20.0921 42.3772L19.3484 41.6335C20.0611 40.8485 20.0404 39.6193 19.2864 38.855C18.8733 38.4418 18.3155 38.2456 17.7681 38.2662C17.7681 38.2352 17.7681 38.2043 17.7681 38.1733C17.7681 37.6362 17.5615 37.13 17.1793 36.7479C16.7972 36.3657 16.291 36.1591 15.7539 36.1591C15.7229 36.1591 15.692 36.1591 15.661 36.1591C15.692 35.6117 15.4854 35.0642 15.0722 34.6408C14.6591 34.2173 14.1013 34.0313 13.5539 34.052C13.5745 33.5046 13.3783 32.9571 12.9651 32.5336C12.1801 31.7486 10.8993 31.7486 10.1143 32.5336L7.11891 35.529L5.43528 34.083V24.2808L11.2092 24.3015L10.8373 24.7146C9.58753 26.14 9.9697 27.4208 10.6927 28.0922C11.9115 29.2387 14.4628 29.2077 16.3117 27.3382C16.9211 26.7288 17.6235 26.233 18.3155 25.9334L27.5186 36.1178Z" fill="white"/>
<path d="M31.712 32.7919C30.1524 33.5976 28.7373 34.6408 28.0762 35.1572L18.8628 24.9522C18.7595 24.8386 18.6149 24.7766 18.4703 24.7766C18.4083 24.7766 18.3567 24.7869 18.2947 24.8076C17.3444 25.1381 16.3735 25.7682 15.5679 26.5842C14.0185 28.1439 12.1696 28.0096 11.4259 27.3072C10.9198 26.8321 11.0025 26.14 11.6429 25.4067L12.7584 24.1362L12.7997 24.0949L14.9068 21.7089C16.4148 20.015 18.5219 19.3952 21.1455 19.86C23.046 20.1906 24.5541 20.9962 24.7606 21.1098C25.9691 21.9878 27.5082 21.9258 28.7373 21.6469L31.712 32.7919Z" fill="white"/>
<path d="M36.7938 32.7713L33.065 33.7732L32.8481 32.9365L29.6152 20.8929L29.4086 20.1389L33.1373 19.1474L36.7938 32.7713Z" fill="white"/>
<path d="M32.6314 0.617157H23.6039C22.5607 0.617157 21.7034 1.47446 21.7034 2.51769V9.80994C21.7034 10.8532 22.5607 11.7105 23.6039 11.7105H27.6735C27.7768 11.7105 27.8698 11.7415 27.9524 11.7931L32.5901 14.7162L31.7844 12.4232C31.7328 12.2579 31.7534 12.0823 31.8464 11.9377C31.9497 11.7931 32.1046 11.7105 32.2802 11.7105H32.6314C33.6746 11.7105 34.5319 10.8532 34.5319 9.80994V2.51769C34.5423 1.47446 33.685 0.617157 32.6314 0.617157ZM28.2106 5.61638C28.6961 5.79197 30.2661 6.48401 30.0802 7.97138C29.9975 8.75639 29.3365 9.31415 28.5928 9.5104V10.0992C28.5928 10.3884 28.3552 10.6259 28.066 10.6259C27.7768 10.6259 27.5392 10.3884 27.5392 10.0992V9.55172C26.8162 9.38645 26.1035 8.80803 26.1138 7.57888C26.1138 7.28967 26.3514 7.05211 26.6406 7.05211C26.9298 7.05211 27.1674 7.28967 27.1674 7.58921C27.1571 8.18829 27.4153 8.50849 27.9214 8.53948H28.066C28.5411 8.50849 29.0059 8.19862 29.0369 7.86809C29.0369 7.85777 29.0369 7.85777 29.0369 7.84744C29.1299 7.13474 28.159 6.72158 27.8594 6.60796C26.496 6.11217 25.9382 5.35815 26.1965 4.36657C26.434 3.46795 27.0331 2.97216 27.6632 2.8069V2.22848C27.6632 1.93927 27.9007 1.7017 28.19 1.7017C28.4792 1.7017 28.7167 1.93927 28.7167 2.22848V2.8069C29.5947 3.04447 30.1731 3.82947 30.1421 4.79006C30.1318 5.07927 29.8839 5.31684 29.5947 5.29618C29.3055 5.28585 29.0782 5.03796 29.0886 4.74875C29.1092 4.12901 28.6961 3.85012 28.3242 3.79848C28.2829 3.78815 28.2313 3.78815 28.19 3.78815C27.8181 3.78815 27.3843 4.00506 27.219 4.6248C27.1571 4.83138 27.0641 5.19289 28.2106 5.61638Z" fill="white"/>
<path d="M14.566 2.51769V9.80994C14.566 10.8532 13.7087 11.7105 12.6654 11.7105H8.59583C8.49254 11.7105 8.39958 11.7415 8.31695 11.7931L3.67924 14.7162L4.4849 12.4232C4.54687 12.2579 4.51588 12.0823 4.41259 11.9377C4.3093 11.7931 4.15437 11.7105 3.97878 11.7105H3.62759C2.57404 11.7105 1.72706 10.8532 1.72706 9.80994V2.51769C1.72706 1.46413 2.58437 0.617157 3.62759 0.617157H12.6551C13.7087 0.617157 14.566 1.47446 14.566 2.51769ZM10.1555 4.79006C10.1865 3.82947 9.6184 3.04447 8.7301 2.8069V2.22848C8.7301 1.93927 8.49254 1.7017 8.20333 1.7017C7.91412 1.7017 7.67655 1.93927 7.67655 2.22848V2.8069C7.04648 2.98249 6.43707 3.46795 6.19951 4.36657C5.94128 5.35815 6.49905 6.11217 7.86247 6.60796C8.16201 6.72158 9.13293 7.13474 9.03997 7.84744V7.86809C9.00899 8.19862 8.55451 8.50849 8.06905 8.53948C8.02773 8.53948 7.97609 8.53948 7.93477 8.53948C7.42865 8.50849 7.17043 8.19862 7.18076 7.58921C7.18076 7.3 6.95352 7.06244 6.65398 7.05211C6.36477 7.05211 6.1272 7.28967 6.1272 7.57888C6.11687 8.80803 6.82957 9.38645 7.5526 9.55172V10.0992C7.5526 10.3884 7.79017 10.6259 8.07938 10.6259C8.36859 10.6259 8.60616 10.3884 8.60616 10.0992V9.5104C9.36017 9.30382 10.0212 8.74606 10.0935 7.96106C10.2795 6.47368 8.70945 5.78164 8.22398 5.60605C7.07747 5.19289 7.17043 4.82105 7.22207 4.6248C7.38734 3.99473 7.82115 3.78815 8.193 3.78815H8.20333C8.24464 3.78815 8.29629 3.78815 8.3376 3.79848C8.69912 3.85012 9.12261 4.12901 9.10195 4.74875C9.09162 5.03796 9.31886 5.28585 9.60807 5.29618C9.89728 5.31684 10.1452 5.07927 10.1555 4.79006Z" fill="white"/>
</svg>
