<svg width="19" height="19" viewBox="0 0 19 19" fill="none" xmlns="http://www.w3.org/2000/svg">
<path d="M2.32922 18.1345C2.158 18.3903 2.2274 18.7359 2.4842 18.9064C2.5795 18.9697 2.68717 19 2.79368 19C2.97425 19 3.15147 18.9129 3.25914 18.752L3.68504 18.1157C3.34028 17.965 3.0118 17.7839 2.70341 17.5754L2.32922 18.1345Z" fill="#024742"/>
<path d="M16.2967 17.5754C15.9883 17.7839 15.6598 17.965 15.3151 18.1157L15.7409 18.752C15.8487 18.9129 16.0258 19 16.2064 19C16.3129 19 16.4206 18.9697 16.5159 18.9064C16.7727 18.7359 16.8421 18.3903 16.6709 18.1345L16.2967 17.5754Z" fill="#024742"/>
<path d="M1.11773 10.767V12.5059C1.11773 15.2682 3.37392 17.5156 6.14713 17.5156H12.853C15.6262 17.5156 17.8824 15.2682 17.8824 12.5059V12.1817H8.64849C6.0506 12.1817 3.52182 11.7059 1.11773 10.767Z" fill="#024742"/>
<path d="M2.98025 6.56053V2.04102C2.98025 1.52946 3.39806 1.11328 3.91162 1.11328H4.65672C5.17027 1.11328 5.58809 1.52946 5.58809 2.04102V2.30512C4.72422 2.55305 4.09789 3.36063 4.09789 4.29856V4.45312C4.09789 4.76054 4.3481 5.00977 4.65672 5.00977H7.6371C7.94572 5.00977 8.19592 4.76054 8.19592 4.45312V4.26758C8.19592 3.33513 7.56471 2.54719 6.70573 2.30423V2.04102C6.70573 0.9156 5.78654 0 4.65672 0H3.91162C2.78179 0 1.8626 0.9156 1.8626 2.04102V6.11355C1.9506 6.14049 2.03748 6.17214 2.12276 6.20981C2.40623 6.33531 2.69216 6.45202 2.98025 6.56053Z" fill="#024742"/>
<path d="M17.8124 8.70278H8.64849C6.22831 8.70278 3.88077 8.20644 1.67011 7.22768C1.06979 6.96279 0.368985 7.23117 0.102651 7.82796C-0.163684 8.42479 0.106115 9.12401 0.705284 9.3893C3.22173 10.5036 5.89395 11.0685 8.64853 11.0685H17.8125C18.4685 11.0685 19 10.539 19 9.8856C18.9999 9.23218 18.4684 8.70278 17.8124 8.70278Z" fill="#024742"/>
</svg>
