<svg width="24" height="22" viewBox="0 0 24 22" fill="none" xmlns="http://www.w3.org/2000/svg">
<path d="M11.5933 19.9675C11.5933 21.09 10.7009 22 9.60013 22C8.49934 22 7.607 21.09 7.607 19.9675C7.607 18.8449 8.49935 17.9349 9.60014 17.9349C10.7009 17.9349 11.5933 18.8449 11.5933 19.9675ZM17.6705 17.9349C16.5697 17.9349 15.6774 18.8449 15.6774 19.9675C15.6774 21.09 16.5697 22 17.6705 22C18.7713 22 19.6636 21.09 19.6636 19.9675C19.6636 18.8449 18.7713 17.9349 17.6705 17.9349ZM23.8574 8.39338L21.4049 15.8268C21.4049 15.8268 21.2018 16.93 20.1675 16.93C19.1331 16.93 9.01774 16.93 7.78333 16.93C6.54893 16.93 6.49705 15.5473 6.49705 15.5473C6.49705 15.5473 5.18115 5.59168 5.11594 4.99023C5.05073 4.38877 4.29646 3.94298 4.29646 3.94298L1.05112 2.39706C-0.725667 1.44955 0.0819592 -0.353279 1.05112 0.0607856C5.16632 2.04042 7.07796 3.01513 7.20096 3.79489C7.32544 4.57616 7.54179 6.45758 7.54179 6.45758V6.46966C7.56698 6.46211 7.58476 6.45758 7.58476 6.45758C7.58476 6.45758 20.2045 6.45758 22.7534 6.45758C24.585 6.45758 23.8574 8.39641 23.8574 8.39338ZM20.3097 12.5325L20.2845 12.534H8.27829L8.52576 14.5348H19.7259L20.3097 12.5325ZM21.4789 8.49766H7.78185L8.04563 10.636C10.673 10.636 18.367 10.636 20.8595 10.636L21.4789 8.49766Z" fill="white"/>
</svg>
