<svg width="16" height="10" viewBox="0 0 16 10" fill="none" xmlns="http://www.w3.org/2000/svg">
<path d="M14.9473 1.79997C15.0713 1.70074 15.15 1.55805 15.15 1.4C15.15 1.24195 15.0713 1.09926 14.9473 1.00003C14.8241 0.90149 14.6629 0.85 14.5 0.85H1.5C1.33711 0.85 1.17591 0.90149 1.05274 1.00003C0.928702 1.09926 0.85 1.24195 0.85 1.4C0.85 1.55805 0.928702 1.70074 1.05274 1.79997C1.17591 1.89851 1.33711 1.95 1.5 1.95H14.5C14.6629 1.95 14.8241 1.89851 14.9473 1.79997ZM12.5 4.45H1.5C1.33711 4.45 1.17591 4.50149 1.05274 4.60003C0.928702 4.69926 0.85 4.84195 0.85 5C0.85 5.15805 0.928702 5.30074 1.05274 5.39997C1.17591 5.49851 1.33711 5.55 1.5 5.55H12.5C12.6629 5.55 12.8241 5.49851 12.9473 5.39997C13.0713 5.30074 13.15 5.15805 13.15 5C13.15 4.84195 13.0713 4.69926 12.9473 4.60003C12.8241 4.50149 12.6629 4.45 12.5 4.45ZM8 8.05H1.5C1.33711 8.05 1.17591 8.10149 1.05274 8.20003C0.928702 8.29926 0.85 8.44195 0.85 8.6C0.85 8.75805 0.928702 8.90074 1.05274 8.99997C1.17591 9.09851 1.33711 9.15 1.5 9.15H8C8.16289 9.15 8.32409 9.09851 8.44726 8.99997C8.5713 8.90074 8.65 8.75805 8.65 8.6C8.65 8.44195 8.5713 8.29926 8.44726 8.20003C8.32409 8.10149 8.16289 8.05 8 8.05Z" fill="white" stroke="white" stroke-width="0.3"/>
</svg>
