<svg width="19" height="19" viewBox="0 0 19 19" fill="none" xmlns="http://www.w3.org/2000/svg">
<path d="M9.42188 5.13089C6.96769 5.13089 5.01201 7.12491 5.01201 9.54076C5.01201 11.9949 6.96769 13.9506 9.42188 13.9506C11.8377 13.9506 13.8317 11.9949 13.8317 9.54076C13.8317 7.12491 11.8377 5.13089 9.42188 5.13089ZM9.42188 12.4168C7.84966 12.4168 6.54587 11.1513 6.54587 9.54076C6.54587 7.96854 7.81131 6.7031 9.42188 6.7031C10.9941 6.7031 12.2595 7.96854 12.2595 9.54076C12.2595 11.1513 10.9941 12.4168 9.42188 12.4168ZM15.0205 4.9775C15.0205 4.4023 14.5603 3.94214 13.9851 3.94214C13.4099 3.94214 12.9498 4.4023 12.9498 4.9775C12.9498 5.5527 13.4099 6.01286 13.9851 6.01286C14.5603 6.01286 15.0205 5.5527 15.0205 4.9775ZM17.9348 6.01286C17.8581 4.63238 17.5514 3.40528 16.5544 2.40827C15.5573 1.41126 14.3303 1.10448 12.9498 1.02779C11.5309 0.951096 7.27446 0.951096 5.85563 1.02779C4.47515 1.10448 3.2864 1.41126 2.25104 2.40827C1.25403 3.40528 0.947256 4.63238 0.870563 6.01286C0.79387 7.43169 0.79387 11.6882 0.870563 13.107C0.947256 14.4875 1.25403 15.6762 2.25104 16.7116C3.2864 17.7086 4.47515 18.0154 5.85563 18.0921C7.27446 18.1688 11.5309 18.1688 12.9498 18.0921C14.3303 18.0154 15.5573 17.7086 16.5544 16.7116C17.5514 15.6762 17.8581 14.4875 17.9348 13.107C18.0115 11.6882 18.0115 7.43169 17.9348 6.01286ZM16.0942 14.6025C15.8258 15.3695 15.2122 15.9447 14.4836 16.2514C13.3332 16.7116 10.649 16.5965 9.42188 16.5965C8.15643 16.5965 5.47217 16.7116 4.36011 16.2514C3.59318 15.9447 3.01798 15.3695 2.7112 14.6025C2.25104 13.4905 2.36608 10.8062 2.36608 9.54076C2.36608 8.31366 2.25104 5.62939 2.7112 4.47899C3.01798 3.7504 3.59318 3.1752 4.36011 2.86843C5.47217 2.40827 8.15643 2.52331 9.42188 2.52331C10.649 2.52331 13.3332 2.40827 14.4836 2.86843C15.2122 3.13686 15.7874 3.7504 16.0942 4.47899C16.5544 5.62939 16.4393 8.31366 16.4393 9.54076C16.4393 10.8062 16.5544 13.4905 16.0942 14.6025Z" fill="white"/>
</svg>
