<svg width="28" height="19" viewBox="0 0 28 19" fill="none" xmlns="http://www.w3.org/2000/svg">
<path d="M10.975 0C10.1406 0 9.46187 0.645498 9.46187 1.43911V17.5609C9.46187 18.3545 10.1406 19 10.975 19C11.8092 19 12.4881 18.3545 12.4881 17.5609V1.43911C12.4881 0.645498 11.8094 0 10.975 0Z" fill="#024742"/>
<path d="M15.642 0C14.8075 0 14.1288 0.645498 14.1288 1.43911V17.5609C14.1288 18.3545 14.8077 19 15.642 19C16.4764 19 17.1551 18.3545 17.1551 17.5609V1.43911C17.1551 0.645498 16.4764 0 15.642 0Z" fill="#024742"/>
<path d="M20.3089 0C19.4747 0 18.7958 0.645498 18.7958 1.43911V17.5609C18.7958 18.3545 19.4747 19 20.3089 19C21.1433 19 21.8223 18.3545 21.8223 17.5609V1.43911C21.8223 0.645498 21.1433 0 20.3089 0Z" fill="#024742"/>
<path d="M4.7947 7.9595V17.5609C4.7947 18.3545 5.47362 19 6.30805 19C7.14228 19 7.82119 18.3545 7.82119 17.5609V1.43911C7.82119 0.645498 7.14228 0 6.30805 0C5.47362 0 4.7947 0.645498 4.7947 1.43911V3.27584H1.64196V4.83747H0V6.39788H1.64196V7.9595H4.7947Z" fill="#024742"/>
<path d="M26.4892 3.27584V1.43911C26.4892 0.645498 25.8103 0 24.9761 0C24.1416 0 23.4629 0.645498 23.4629 1.43911V17.5609C23.4629 18.3545 24.1416 19 24.9761 19C25.8103 19 26.4892 18.3545 26.4892 17.5609V4.83625H28V3.27584H26.4892Z" fill="#024742"/>
</svg>
