<svg width="18" height="19" viewBox="0 0 18 19" fill="none" xmlns="http://www.w3.org/2000/svg">
<path d="M16.8346 13.9644C16.2952 13.2532 15.3191 12.2268 15.3191 12.2268C15.3191 12.2268 14.3431 13.2532 13.8037 13.9645C13.0195 14.9984 12.6383 15.7925 12.6383 16.3922C12.6383 17.8301 13.8409 19 15.3191 19C16.7974 19 18 17.8301 18 16.3922C18 15.7925 17.6188 14.9984 16.8346 13.9644Z" fill="#024742"/>
<path d="M12.0456 5.57054L11.8518 5.57251C11.6021 5.57505 11.3673 5.48251 11.1899 5.31184C11.0126 5.14114 10.9149 4.91347 10.9149 4.6708V2.79412H9.19149V1.67647H12.0638V0.558824H9.19149V0H8.04255V0.558824H5.17021V1.67647H8.04255V2.79412H6.31915V4.53258C6.31915 5.11469 5.83235 5.58824 5.23394 5.58824H3.78077C3.81248 5.75257 3.82979 5.92174 3.82979 6.09486V8.99337C3.82979 9.16649 3.81244 9.33567 3.78077 9.5H12.0638C12.6974 9.5 13.2128 10.0014 13.2128 10.6176V11.1765H17.234V10.6176C17.234 7.83467 14.9065 5.57054 12.0456 5.57054Z" fill="#024742"/>
<path d="M1.0111 4.47059H0V10.6176H1.0111C1.93178 10.6176 2.68085 9.88898 2.68085 8.99337V6.09486C2.68085 5.19926 1.93178 4.47059 1.0111 4.47059Z" fill="#024742"/>
</svg>
