<svg width="33" height="40" viewBox="0 0 33 40" fill="none" xmlns="http://www.w3.org/2000/svg">
<path d="M4.49922 3.0002C4.49922 2.77555 4.67982 2.5922 4.90307 2.5922C5.12522 2.5922 5.30692 2.77555 5.30692 3.0002V5.62495L6.82602 4.8665C7.10622 4.7276 7.44437 4.84375 7.58337 5.1269C7.72127 5.40905 7.60632 5.75305 7.32727 5.89185L5.26207 6.92055C5.18222 6.96185 5.09572 6.98025 5.01257 6.98025C4.80352 6.98025 4.60327 6.8641 4.50587 6.6623C4.42707 6.50165 4.43257 6.32485 4.49927 6.174L4.49922 3.0002ZM3.33477 0.9657L3.40262 0.89735C3.05457 0.4655 2.52382 0.1888 1.92842 0.1855C0.870118 0.179 0.00771794 1.04165 1.7943e-05 2.11155C-0.00218206 2.62915 0.198068 3.10115 0.522068 3.4505C1.11967 2.31225 2.12102 1.4225 3.33477 0.9657ZM9.79627 3.48415C10.1126 3.1402 10.3096 2.6812 10.3128 2.1745C10.3194 1.10355 9.46577 0.23005 8.40632 0.2246C7.82297 0.22135 7.30097 0.48175 6.94747 0.8941L7.03607 0.9842C7.71682 1.2511 8.34172 1.65695 8.86922 2.1973C9.24577 2.58245 9.55657 3.0154 9.79627 3.48415ZM1.21592 8.4885C0.735518 7.73985 0.456418 6.84575 0.462968 5.88765C0.478268 3.28345 2.57197 1.1817 5.14602 1.1817C5.15482 1.1817 5.16462 1.1817 5.17337 1.1817C7.76062 1.19795 9.84552 3.3301 9.82907 5.94295C9.82252 6.9445 9.50947 7.869 8.98202 8.6307L9.94952 9.62135C10.0743 9.74945 10.0743 9.95555 9.94732 10.0824C9.88382 10.1454 9.80177 10.1769 9.72077 10.1769C9.63652 10.1769 9.55442 10.1444 9.49092 10.0803L8.57272 9.14065C7.71687 10.0684 6.49772 10.649 5.14717 10.649C5.13727 10.649 5.12742 10.6479 5.11872 10.6479C3.71457 10.6403 2.46037 10.0077 1.60782 9.01485L0.606368 10.0153C0.544018 10.0782 0.460818 10.1097 0.379868 10.1097C0.295568 10.1097 0.213518 10.0772 0.150018 10.0121C0.0241179 9.88405 0.0252179 9.67675 0.152218 9.5509L1.21592 8.4885ZM5.12302 9.83185L5.14712 9.8329C7.27137 9.8329 9.00932 8.08595 9.02247 5.93855C9.02792 4.8926 8.63062 3.90625 7.90287 3.1619C7.17617 2.4186 6.20322 2.0041 5.16897 1.9976H5.14597C3.02057 1.9976 1.28262 3.7446 1.27062 5.8919C1.26402 6.939 1.66127 7.9243 2.38912 8.6687C3.11802 9.413 4.08772 9.8264 5.12302 9.83185ZM23.6189 8.4722C21.2506 8.4722 19.3331 6.5788 19.3331 4.2361C19.3332 1.8956 21.2506 0 23.6189 0C25.9883 0 27.9079 1.8956 27.9079 4.2361C27.908 6.5788 25.9883 8.4722 23.6189 8.4722ZM10.7813 12.4132C11.4379 11.888 12.3977 11.9901 12.9253 12.6367C13.0938 12.8429 13.3159 13.1533 13.5808 13.5211C14.0525 14.1797 15.4293 16.0982 16.1724 16.466C16.5391 16.6482 17.0709 14.3989 17.13 14.1602C17.3489 13.278 17.5886 12.3546 18.0986 11.5885C18.5682 10.8887 19.1394 10.2257 19.8978 9.82315C20.8839 9.30225 21.975 8.9963 23.0881 8.91595L21.9838 20.3852L23.5807 22.2374L25.4062 20.3852L24.0218 8.91375C25.4423 8.98105 26.7207 9.4053 27.9945 10.0368C28.2922 10.1866 28.5734 10.3558 28.8482 10.5424C29.4863 10.9755 30.0652 11.4919 30.6135 12.0268C33.0967 14.4466 32.8614 15.7856 31.4442 17.7072C31.1738 18.0729 30.8685 18.4917 30.5675 19.0135C30.3169 19.4454 30.2983 19.4813 30.9209 20.4936C31.0348 20.6727 31.1497 20.8604 31.2646 21.06C31.6849 21.7805 31.4332 22.7018 30.7032 23.1152C30.4635 23.2519 30.203 23.3169 29.9459 23.3169C29.4173 23.3169 28.9051 23.0457 28.6227 22.5607C28.521 22.3849 28.4192 22.22 28.3217 22.0617C28.0918 21.6895 27.8357 21.2673 27.6454 20.7941C27.6498 20.8289 27.6608 20.8615 27.663 20.8973L28.8723 37.7886C28.9501 38.8649 28.128 39.798 27.0414 39.8741C26.9944 39.8784 26.9462 39.8784 26.9002 39.8784C25.8715 39.8784 25.0036 39.094 24.9324 38.0642L23.9803 24.7624C23.8347 24.7233 23.6915 24.6876 23.5677 24.6876C23.421 24.6876 23.2843 24.7135 23.143 24.7298L22.262 38.1728C22.1928 39.2069 21.3228 40 20.2919 40C20.248 40 20.2043 39.9978 20.1616 39.9958C19.0727 39.9262 18.2475 38.9974 18.3186 37.9199L19.3638 21.9585C19.3737 21.8347 19.3944 21.7176 19.4229 21.6048C19.4875 19.9338 19.6374 17.7496 19.7775 15.9059C19.4623 17.1028 18.9042 18.3962 17.5526 19.1764C17.1094 19.4314 16.6704 19.5431 16.2392 19.5431C14.1632 19.5431 12.2938 16.9357 11.0944 15.2625C10.8766 14.9586 10.6938 14.7004 10.5537 14.5311C10.025 13.8834 10.1257 12.9362 10.7813 12.4132ZM27.5184 18.4657C27.6091 18.164 27.7274 17.8559 27.9178 17.5261C28.3008 16.8555 28.6795 16.3455 28.9805 15.9342C29.1479 15.7074 29.3493 15.4341 29.4325 15.2811C29.3603 15.1454 29.1414 14.8221 28.4749 14.1732C28.0098 13.7196 27.6212 13.381 27.2579 13.1184C27.3104 14.1145 27.4122 16.148 27.5184 18.4657Z" fill="white"/>
</svg>
