<svg width="29" height="40" viewBox="0 0 29 40" fill="none" xmlns="http://www.w3.org/2000/svg">
<path d="M14.4265 0C6.56056 0 0 6.3363 0 14.4265C0 17.5043 0.92487 20.2489 2.69985 22.8206L13.3225 39.3963C13.8378 40.202 15.0162 40.2005 15.5305 39.3963L26.1992 22.7642C27.936 20.309 28.853 17.4261 28.853 14.4265C28.853 6.47173 22.3813 0 14.4265 0ZM14.4265 20.984C10.8109 20.984 7.869 18.0421 7.869 14.4265C7.869 10.8109 10.8109 7.869 14.4265 7.869C18.0421 7.869 20.984 10.8109 20.984 14.4265C20.984 18.0421 18.0421 20.984 14.4265 20.984Z" fill="white"/>
</svg>
