<svg width="19" height="19" viewBox="0 0 19 19" fill="none" xmlns="http://www.w3.org/2000/svg">
<path d="M11.6111 0H3.16667C2.32758 0.00250598 1.52359 0.336941 0.930264 0.930264C0.336941 1.52359 0.00250598 2.32758 0 3.16667V11.6111C0.00250598 12.4502 0.336941 13.2542 0.930264 13.8475C1.52359 14.4408 2.32758 14.7753 3.16667 14.7778H11.6111C12.4502 14.7753 13.2542 14.4408 13.8475 13.8475C14.4408 13.2542 14.7753 12.4502 14.7778 11.6111V3.16667C14.7753 2.32758 14.4408 1.52359 13.8475 0.930264C13.2542 0.336941 12.4502 0.00250598 11.6111 0ZM9.5 8.44444H8.44444V9.5C8.44444 9.77995 8.33323 10.0484 8.13528 10.2464C7.93732 10.4443 7.66884 10.5556 7.38889 10.5556C7.10894 10.5556 6.84045 10.4443 6.6425 10.2464C6.44454 10.0484 6.33333 9.77995 6.33333 9.5V8.44444H5.27778C4.99783 8.44444 4.72934 8.33323 4.53139 8.13528C4.33343 7.93732 4.22222 7.66884 4.22222 7.38889C4.22222 7.10894 4.33343 6.84045 4.53139 6.6425C4.72934 6.44454 4.99783 6.33333 5.27778 6.33333H6.33333V5.27778C6.33333 4.99783 6.44454 4.72934 6.6425 4.53139C6.84045 4.33343 7.10894 4.22222 7.38889 4.22222C7.66884 4.22222 7.93732 4.33343 8.13528 4.53139C8.33323 4.72934 8.44444 4.99783 8.44444 5.27778V6.33333H9.5C9.77995 6.33333 10.0484 6.44454 10.2464 6.6425C10.4443 6.84045 10.5556 7.10894 10.5556 7.38889C10.5556 7.66884 10.4443 7.93732 10.2464 8.13528C10.0484 8.33323 9.77995 8.44444 9.5 8.44444Z" fill="#024742"/>
<path d="M13.7222 19H4.22222C3.94227 19 3.67379 18.8888 3.47583 18.6908C3.27788 18.4929 3.16667 18.2244 3.16667 17.9444C3.16667 17.6645 3.27788 17.396 3.47583 17.1981C3.67379 17.0001 3.94227 16.8889 4.22222 16.8889H13.7222C14.5621 16.8889 15.3675 16.5553 15.9614 15.9614C16.5553 15.3675 16.8889 14.5621 16.8889 13.7222V4.22222C16.8889 3.94227 17.0001 3.67379 17.1981 3.47583C17.396 3.27788 17.6645 3.16667 17.9444 3.16667C18.2244 3.16667 18.4929 3.27788 18.6908 3.47583C18.8888 3.67379 19 3.94227 19 4.22222V13.7222C18.9983 15.1215 18.4417 16.4629 17.4523 17.4523C16.4629 18.4417 15.1215 18.9983 13.7222 19Z" fill="#024742"/>
</svg>
