<svg width="19" height="19" viewBox="0 0 19 19" fill="none" xmlns="http://www.w3.org/2000/svg">
<path d="M6.33335 0.95V0.316654C6.33335 0.141758 6.19159 0 6.01669 0H0.316691C0.141795 0 0 0.141758 0 0.316654V0.95C0 1.1249 0.141758 1.26665 0.316654 1.26665H6.01665C6.19159 1.26665 6.33335 1.1249 6.33335 0.95Z" fill="#024742"/>
<path d="M9.60769 13.8637C7.88504 13.2145 6.62785 11.7958 6.38404 10.0985C6.36619 9.93733 6.22951 9.81569 6.06738 9.81665H1.634C1.45914 9.81439 1.31553 9.95433 1.31326 10.1292C1.31304 10.1476 1.31438 10.1659 1.31731 10.184C1.58331 11.647 2.94181 12.2867 3.79996 12.958C5.00646 13.908 5.89946 15.4913 5.44981 18.6327C5.42183 18.8053 5.53906 18.9679 5.71169 18.9959C5.7298 18.9988 5.74813 19.0002 5.76646 19H8.68931C8.80717 19.0008 8.91575 18.9362 8.97115 18.8321C9.65831 17.48 9.81665 15.808 9.81665 14.1613C9.81662 14.028 9.73305 13.909 9.60769 13.8637Z" fill="#024742"/>
<path d="M5.7 8.86665V4.11665H6.33335C6.50824 4.11665 6.65 3.9749 6.65 3.8C6.65 3.6251 6.50824 3.48335 6.33335 3.48335H5.7V2.21665C5.7 2.04176 5.55821 1.9 5.38335 1.9H0.95C0.775104 1.9 0.633346 2.04176 0.633346 2.21665V8.86665C0.633346 9.04155 0.775104 9.18331 0.95 9.18331H5.38335C5.55824 9.18335 5.7 9.04155 5.7 8.86665Z" fill="#024742"/>
<path d="M14.25 14.4843C14.2515 14.3094 14.1109 14.1665 13.936 14.165C13.9214 14.1649 13.9067 14.1658 13.8922 14.1677C13.5918 14.2186 13.2879 14.2462 12.9833 14.25H11.7167C11.4112 14.2495 11.1063 14.2251 10.8047 14.1772C10.6312 14.1544 10.4722 14.2766 10.4495 14.45C10.4476 14.4645 10.4467 14.4792 10.4468 14.4938C10.4404 15.8869 10.1874 17.2677 9.69946 18.5725C9.63823 18.7363 9.72139 18.9188 9.8852 18.98C9.919 18.9926 9.9547 18.9994 9.99077 19H14.7091C14.884 18.9984 15.0245 18.8554 15.0229 18.6805C15.0225 18.6413 15.0149 18.6026 15.0005 18.5662C14.5112 17.2606 14.2571 15.8786 14.25 14.4843Z" fill="#024742"/>
<path d="M18.525 8.23335H6.80835C6.54602 8.23335 6.33335 8.44602 6.33335 8.70835C6.33335 8.97067 6.54602 9.18335 6.80835 9.18335H18.525C18.7873 9.18335 19 8.97067 19 8.70835C19 8.44598 18.7874 8.23335 18.525 8.23335Z" fill="#024742"/>
<path d="M17.4136 9.82304C17.3917 9.81855 17.3694 9.81643 17.347 9.81665H7.353C7.17814 9.81313 7.03353 9.95199 7.03 10.1269C7.02952 10.1503 7.03167 10.1737 7.03635 10.1967C7.42269 12.1347 9.37019 13.6167 11.7167 13.6167H12.9833C15.3298 13.6167 17.2773 12.1347 17.6605 10.1967C17.6955 10.0253 17.5849 9.85803 17.4136 9.82304Z" fill="#024742"/>
</svg>
