<svg width="31" height="34" viewBox="0 0 31 34" fill="none" xmlns="http://www.w3.org/2000/svg">
<path d="M2.34424 8.04878H5.2942M5.2942 8.04878H28.8939M5.2942 8.04878L5.29456 28.6983C5.29456 29.4807 5.60536 30.231 6.15858 30.7843C6.71181 31.3375 7.46214 31.6483 8.24452 31.6483H22.9943C23.7767 31.6483 24.527 31.3375 25.0803 30.7843C25.6335 30.231 25.9443 29.4807 25.9443 28.6983V8.0486L5.2942 8.04878ZM9.7195 8.0486V5.09864C9.7195 4.31626 10.0303 3.56593 10.5835 3.01271C11.1367 2.45948 11.8871 2.14868 12.6695 2.14868H18.5694C19.3518 2.14868 20.1021 2.45948 20.6553 3.01271C21.2085 3.56593 21.5193 4.31626 21.5193 5.09864V8.0486M12.6687 15.4235V24.2734M18.5694 15.4235V24.2734" stroke="#E93232" stroke-width="3.31871" stroke-linecap="round" stroke-linejoin="round"/>
</svg>
