<svg width="18" height="15" viewBox="0 0 18 15" fill="none" xmlns="http://www.w3.org/2000/svg">
<path d="M15.9358 3.73516C16.628 3.21602 17.251 2.59306 17.7355 1.86626C17.1125 2.14314 16.3857 2.35079 15.659 2.42001C16.4204 1.97009 16.9741 1.27791 17.251 0.412678C16.5588 0.827988 15.7628 1.13947 14.9668 1.31252C14.2746 0.585724 13.3401 0.170413 12.3019 0.170413C10.2945 0.170413 8.66789 1.79705 8.66789 3.80438C8.66789 4.08126 8.7025 4.35813 8.77172 4.635C5.76072 4.46196 3.0612 3.00837 1.26152 0.827988C0.950035 1.34713 0.776989 1.97009 0.776989 2.66228C0.776989 3.90821 1.39996 5.0157 2.40362 5.67328C1.81527 5.63867 1.22691 5.50023 0.74238 5.22336V5.25797C0.74238 7.02304 1.98831 8.47663 3.64955 8.82272C3.37268 8.89194 3.02659 8.96116 2.71511 8.96116C2.47284 8.96116 2.26519 8.92655 2.02292 8.89194C2.47284 10.3455 3.8226 11.3838 5.41462 11.4184C4.16869 12.3875 2.61128 12.9758 0.915426 12.9758C0.603943 12.9758 0.327069 12.9412 0.0501957 12.9066C1.64222 13.9449 3.54573 14.5332 5.62228 14.5332C12.3019 14.5332 15.9358 9.03037 15.9358 4.21969C15.9358 4.04665 15.9358 3.90821 15.9358 3.73516Z" fill="white"/>
</svg>
